<svg id="Layer_1" data-name="Layer 1" xmlns="http://www.w3.org/2000/svg" viewBox="0 0 152 38"><defs><style>.cls-1{fill:#fff;}</style></defs><title>Artboard 1</title><path class="cls-1" d="M26.22,21.25c-.4,2.05-.78,3.11-1.4,5.31,0,.08,0,.12,0,.2A10.5,10.5,0,0,0,24,29.4a10.38,10.38,0,0,1-.85,2.78,8.09,8.09,0,0,1-1.66,2.42,3.14,3.14,0,0,1-2.24,1,3.2,3.2,0,0,1-2.13-.83,5.55,5.55,0,0,1-1.46-2,15,15,0,0,1-.89-2.89,30.59,30.59,0,0,1-.5-3.25c-.1-1.06-.14-2.17-.25-3.34-.16-1.79-.42-3.18-.5-4.18s-.16-1.85-.22-2.56-.11-1.36-.12-1.92c0-.28,0-.6,0-.94s0-.72,0-1.14c0-.85,0-1.72-.12-2.52S13,8.34,12.94,7.36s-.12-1.85-.11-2.59a11.08,11.08,0,0,1,.25-2.12A4.85,4.85,0,0,1,13.74,1,2.67,2.67,0,0,1,16.1-.2a6.25,6.25,0,0,1,2.56.59A7.38,7.38,0,0,1,21,2.21c.77.85,1.5,1.71,2.17,2.55a16.48,16.48,0,0,1,2,3.47,32.41,32.41,0,0,1,1.32,3.34,8.91,8.91,0,0,1,.2,3.16c-.11,1.79-.15,3.19-.23,4.19S26.32,20.31,26.22,21.25ZM20.62,5.14A9.15,9.15,0,0,0,18.77,3a2.94,2.94,0,0,0-1.62-.75,1.11,1.11,0,0,0-1,.5,3.36,3.36,0,0,0-.42,1.51c0,.67-.07,1.4,0,2.19s.09,1.68.19,2.67S16,11,16,11.73s-.07,1.41-.14,2.16a28.4,28.4,0,0,0-.06,2.93c0,.08,0,.11,0,.18.09,1.85.48,3.83.74,5.94s.26,3.89.42,5.27a12.28,12.28,0,0,0,.91,3.53c.44,1,1,1.48,1.67,1.47s1.11-.57,1.63-1.69a29.42,29.42,0,0,0,1.46-4.13,44.39,44.39,0,0,0,1.45-5.91c.1-1.09.14-1.88.16-2.39s0-1.22,0-2.17,0-1.85,0-2.68a10.46,10.46,0,0,0-.42-2.89A18.77,18.77,0,0,0,22.38,8,30.59,30.59,0,0,0,20.62,5.14Z"/><path class="cls-1" d="M32.59,8.73c1.33,4.77.33,6.35-.4,10.32a12.37,12.37,0,0,0,2.48.14l1.63,0a4,4,0,0,0,.4-1.26c.16-.73.4-2.31.66-4.8s-1.07-4.75-1.64-6.28A.83.83,0,0,1,35.81,6a.78.78,0,0,1,.68-.32,2.41,2.41,0,0,1,.66.1c.18,0,.38.13.61.21s.47.14.53.19c1.85,1.65,1.46,9-.16,15.57A69.64,69.64,0,0,0,36.2,33.18a1.06,1.06,0,0,1-.43.8,1.39,1.39,0,0,1-1,.4c-.37,0-.68-.32-.91-.93a7.12,7.12,0,0,1-.28-2.67,21.11,21.11,0,0,1,.33-3c.06-.35.16-.76.28-1.2s.35-1.29.59-2.05c.43-1.34.64-2,.7-2.24l0-.15c.14-.47.21-.7.35-1.15l-.17-.37v0a4.28,4.28,0,0,1-.82.1l-2.81-.31c-.34,1.83-.57,2.73-1.11,4.73a31.24,31.24,0,0,0-1.07,7.4,2.53,2.53,0,0,1-.37,1.19,1,1,0,0,1-.92.52c-.57,0-1-.58-1.1-1.7a14.91,14.91,0,0,1,.31-4.49c.58-2.7,1.12-4,1.59-6.48a11.38,11.38,0,0,0,.24-2.1l0-.19c.31-1.4.46-2.17.48-2.34.3-3.59.6-5.24-1.07-9.76a1.22,1.22,0,0,1,.05-1A.85.85,0,0,1,30,5.76C31.05,5.8,32,6.84,32.59,8.73Z"/><path class="cls-1" d="M56.77,33.37a2.47,2.47,0,0,1,.07,1.3.71.71,0,0,1-.78.51c-1.05,0-3.94-7.12-1-16.86a21,21,0,0,0,.65-2.48c-1.8,3.35-3.76,6.24-4.9,9a15,15,0,0,0-1.1,8.9,1.4,1.4,0,0,1-.16,1,.81.81,0,0,1-.74.44c-1.06,0-2-1.39-2.07-3.85,0-1.52.84-6.83,2.42-14.36A14.86,14.86,0,0,0,45.45,3.6c0-.7.26-1,1-1s2.77,1.71,4.4,4.73,1.76,6.21.63,10-1.84,5.77-1.84,5.83c.18-.37.75-1.5,1.77-3.31s1.81-3.22,2.34-4.31c1.59-3.27,1.58-5.68,1.2-7.2-.08-.32-.13-.48-.23-.81a1.14,1.14,0,0,1,0-.87.63.63,0,0,1,.64-.41,2,2,0,0,1,2.06,1.3c.08.25.11.38.18.63.67,2.69.67,6.19-.39,10.86-.47,2-.9,3.73-1.15,5.05a59.1,59.1,0,0,1,3.57-6.18c3.57-5.65,3.66-10.3,1.11-14.15A4.92,4.92,0,0,1,60,2.22c-.05-.33.15-.49.64-.49a3.14,3.14,0,0,1,1.46.41,3.33,3.33,0,0,1,1.14,1,2,2,0,0,1,.25,1.06c.35,3.08,1.6,9.07-2,14.18S55.49,28.39,56.77,33.37Z"/><path class="cls-1" d="M70.26,9.9c.18,4.17-1.15,5.9-3.36,9.53a8.15,8.15,0,0,0,2,.28l1.41.08a6.58,6.58,0,0,0,.84-1.14,13,13,0,0,0,2.11-4.49,12.88,12.88,0,0,0,0-5.91.88.88,0,0,1,.2-.81.8.8,0,0,1,.63-.31,2.79,2.79,0,0,1,.57.1l.51.2a4,4,0,0,1,.45.18c1.39,1.51-1.58,8.45-4.52,14.64a11.77,11.77,0,0,0,.27,11.16.84.84,0,0,1-.07.81.88.88,0,0,1-.81.4c-.37,0-.84-.34-1.33-1A7.86,7.86,0,0,1,67.9,30.9,11.79,11.79,0,0,1,67.49,28a8,8,0,0,1,.07-1.15,15.75,15.75,0,0,1,.35-2,11.32,11.32,0,0,1,.73-2.14,1,1,0,0,0,.07-.15c.23-.43.35-.65.61-1.07,0-.14,0-.21,0-.35l0,0a3,3,0,0,1-.74,0l-2.29-.45a14.3,14.3,0,0,0-1.8,4.5,12,12,0,0,0,.4,7.41A2.7,2.7,0,0,1,65,33.87a.6.6,0,0,1-.67.55c-.57,0-1.27-.66-1.8-1.86a9.87,9.87,0,0,1-.75-4.65,14.57,14.57,0,0,1,1.85-6.26c.59-1.21.95-1.84,1-2l.1-.18c.83-1.28,1.27-2,1.36-2.14,1.67-3.31,2.32-5,1.49-8.86a1.16,1.16,0,0,1,.15-.88.81.81,0,0,1,.75-.36C69.37,7.31,70.17,8.24,70.26,9.9Z"/><path class="cls-1" d="M79.38,14.5A9.79,9.79,0,0,0,79.73,11c.09-2,.38-3.08,1.6-3a14.33,14.33,0,0,1,3.26.75c1.37.45,2.06,1,2,1.54s-.46,1-1.31,1.29a17.26,17.26,0,0,0-3.16-1,9.35,9.35,0,0,1-.09,1.84,10.4,10.4,0,0,1-2.53,5.44l-.29.54,1.47.05c1.29.08,1.68.43,1.17,1a2.19,2.19,0,0,1-.86.6,2.32,2.32,0,0,1-1.09.22,10.67,10.67,0,0,1-1.09-.12l-1-.06a26.93,26.93,0,0,0-1.63,2.65c-1.42,2.66-1.49,4.22-.81,7.49a7.28,7.28,0,0,0,1,2.61l3.05-.06A2.41,2.41,0,0,1,81.67,34c.29.5.35.86.13,1.08a1.44,1.44,0,0,1-1.06.34l-3.66,0a2.71,2.71,0,0,1-1.32-.48,2.93,2.93,0,0,1-1.07-1.09,11.85,11.85,0,0,1-.57-1.29,11.14,11.14,0,0,1-1-7.43C74.13,20.33,77.61,19.05,79.38,14.5Z"/><path class="cls-1" d="M88.55,15.14a10.65,10.65,0,0,0,.56-3.55c.23-2.05.6-3.17,1.79-3.12A12.16,12.16,0,0,1,94,9.16c1.3.43,1.92.94,1.87,1.53s-.51,1.07-1.35,1.36a14.54,14.54,0,0,0-3-1A11.51,11.51,0,0,1,91.32,13a10.32,10.32,0,0,1-2.86,5.45s-.13.2-.33.52l1.45,0c1.28.07,1.65.39,1.1,1a2.46,2.46,0,0,1-.9.58,2.5,2.5,0,0,1-1.1.23,10.37,10.37,0,0,1-1.09-.12l-1,0a16.29,16.29,0,0,0-1.72,2.55c-1.4,2.58-1.29,4.16-.32,7.35A7.57,7.57,0,0,0,85.76,33L88.82,33a2.7,2.7,0,0,1,2.36,1.17c.34.48.43.84.23,1a1.33,1.33,0,0,1-1,.33l-3.67,0A3,3,0,0,1,85.35,35a3.47,3.47,0,0,1-1.19-1.07,12.44,12.44,0,0,1-.71-1.26c-1.71-3.16-1.83-4.56-1.61-7.28C82.51,20.7,86.58,19.72,88.55,15.14Z"/><path class="cls-1" d="M100.08,13.21c-1,4.15-3,5.49-5.36,8.64a3.7,3.7,0,0,0-1,1.15,6.43,6.43,0,0,0-.32.71c-.93,2.33-.82,3.68,0,6.4.67,2,2,3.06,3,3.08l1.81,0a3.87,3.87,0,0,1,3.33,1.38.87.87,0,0,1,.24.83.66.66,0,0,1-.58.39c-1.4-.38-3.66-1-4.42-.61-.19.09-.55.44-1,.44a2.8,2.8,0,0,1-1.43-.51A4.16,4.16,0,0,1,93.25,34a11.42,11.42,0,0,1-2.17-9.46c1-3.85,4.53-5.73,5.7-7.52l.17-.27a14.35,14.35,0,0,0,1.13-3.84c.61-2.73.9-4.29,1.81-4.3a.86.86,0,0,1,.7.34,1.12,1.12,0,0,1,.28.83A16,16,0,0,1,100.08,13.21Z"/><path class="cls-1" d="M106.44,21.63c-1.85,2.86-1.58,4.68-.26,8.24.18.49.27.75.5,1.25a10.66,10.66,0,0,0,.55,1.2h.6l1.3,0a2.64,2.64,0,0,1,2.47,1.12,1,1,0,0,1,.12,1,.73.73,0,0,1-.77.39l-2,0a23.2,23.2,0,0,1-2.67-.13,3.64,3.64,0,0,1-.51,0,2.64,2.64,0,0,1-2.31-1.05,1.17,1.17,0,0,1-.22-.78c0-.24.14-.37.31-.38l1.29,0c-.09-.23-.13-.35-.21-.57-2-3.69-2.81-5.55-1.57-8.61,1.52-3.2,4-4.1,5.17-7.77a27.45,27.45,0,0,0,1-4.86l-.77,0-.94.08a1.27,1.27,0,0,1-.88-.24c-.19-.17-.25-.51-.2-1,.07-.73.75-1.13,2.11-1.19,2-.07,3-.12,5-.21,1.15-.06,1.68.27,1.56,1a1.63,1.63,0,0,1-.53.87,1.57,1.57,0,0,1-.92.42l-2.11.08a29.21,29.21,0,0,1-.9,4.29C109.66,18.12,108.28,19.07,106.44,21.63Z"/><path class="cls-1" d="M116.24,15.46c.22-1.41.46-2.27.79-3.91.59-2.29,1.37-3.57,2.57-3.63a9.84,9.84,0,0,1,3,.46c1.24.36,1.77.87,1.6,1.53a2.55,2.55,0,0,1-1.67,1.63,12.12,12.12,0,0,0-3-.79c-.14.71-.31,1.41-.49,2.09-.81,2.75-.93,3.88-2.2,5.89,0,0-.08.21-.2.54l1.62-.08c1.45,0,2,.28,1.64.91a1.82,1.82,0,0,1-.78.66,2.75,2.75,0,0,1-1.19.29c-.41,0-.85,0-1.3-.05h-1.16a16.11,16.11,0,0,0-1.15,2.7c-.89,2.75-.07,4.34,1.05,7.42a9.6,9.6,0,0,0,1.19,2.42l3.36-.06a2.27,2.27,0,0,1,2.26,1.09c.22.44.19.76-.1,1a1.88,1.88,0,0,1-1.16.29l-3.75,0a3,3,0,0,1-1.33-.42,3,3,0,0,1-1.11-1c-.28-.47-.41-.7-.66-1.16a19.46,19.46,0,0,1-2.64-7.07C110.88,21.44,115.06,20.32,116.24,15.46Z"/><path class="cls-1" d="M127.45,11.15c-.81,0-.9-1-.38-3.25a26.42,26.42,0,0,1,.79-2.85A5.29,5.29,0,0,1,129,3.24a2.64,2.64,0,0,1,1.81-.83,3.16,3.16,0,0,1,1.78.37,2.64,2.64,0,0,1,1,1,4.08,4.08,0,0,1,.32,1.68,16.84,16.84,0,0,1-.62,4c-.41,1.67-1,3.36-1.41,4.92a10.27,10.27,0,0,1-1.7,3.64c-1.91,2.57-4,5.53-3.26,9.54.25,1.36.48,2.32.62,2.85a3.61,3.61,0,0,0-1,.05.4.4,0,0,1-.22.07,1.59,1.59,0,0,1-1.45-1c-1-2.6-.3-6.59,2.18-10s3.07-7,3.88-10.1.65-4.71-.23-4.66c-.56,0-.94.81-1.3,2.36-.06.27-.19,1.21-.41,2.78,0,.15-.27.37-.7.67A2.22,2.22,0,0,1,127.45,11.15Zm1.78,22.69c.34,1.11-.06,1.66-1.28,1.65a2.2,2.2,0,0,1-1.32-.51,2.56,2.56,0,0,1-.93-1.13,1.12,1.12,0,0,1,.16-1.15,1.29,1.29,0,0,1,1.09-.53,2.33,2.33,0,0,1,1.4.57A2.41,2.41,0,0,1,129.23,33.84Z"/><path class="cls-1" d="M138.31,34.84c.08,1-.6,1.55-2.05,1.54a1.76,1.76,0,0,1-1.07-.47,2,2,0,0,1-.75-1.23,1.62,1.62,0,0,1,.34-1.37,1.66,1.66,0,0,1,1.38-.61,2,2,0,0,1,1.5.63A2.44,2.44,0,0,1,138.31,34.84Zm-1.54-11.09a14.56,14.56,0,0,0,.15,2.05c.16,2-.08,3-.74,3-.36,0-.73-.35-1.11-1.05a7.21,7.21,0,0,1-.74-2.68c-.2-2.88.66-4,1.52-6.45,1.46-4.87,1.76-8.78,2.42-15.25a2.16,2.16,0,0,1,.67-1.33,1.73,1.73,0,0,1,1.13-.56,1.14,1.14,0,0,1,.87.31,1.07,1.07,0,0,1,.27.8c-.16,2.52-2,7.13-2.13,11.78S136.88,21.53,136.77,23.75Z"/></svg>
